<svg width="24" height="24" viewBox="0 0 24 24" fill="none" xmlns="http://www.w3.org/2000/svg">
<path d="M4.56139 14.5567L8.80294 2.53538C8.80294 2.53538 10.2169 1.121 11.986 2.89001C13.7551 4.65901 13.0467 6.77909 13.0467 6.77909M4.56139 14.5567L5.97589 15.9718M4.56139 14.5567C2.44191 16.6801 1.73009 18.7968 3.50062 20.5672C5.27114 22.3377 7.38986 21.6279 9.51116 19.5065M4.56139 14.5567L9.51116 19.5065M5.97589 15.9718L13.0467 6.77909M5.97589 15.9718L8.097 18.0929M13.0467 6.77909C13.0467 6.77909 14.8148 5.71886 16.5826 7.48663C18.3505 9.2544 17.2897 11.0221 17.2897 11.0221M9.51116 19.5065L21.5334 15.2659C21.5334 15.2659 22.9479 13.8518 21.1788 12.0828C19.4098 10.3138 17.2897 11.0221 17.2897 11.0221M9.51116 19.5065L8.097 18.0929M8.097 18.0929L17.2897 11.0221" stroke="#26272B" stroke-width="1.5" stroke-linejoin="round"/>
</svg>
