<svg width="24" height="24" viewBox="0 0 24 24" fill="none" xmlns="http://www.w3.org/2000/svg">
<path d="M13.003 2.04968C12.6731 2.01682 12.3385 2 12 2C7.21195 2 3.20985 5.36506 2.22967 9.85922M13.003 2.04968C18.0549 2.5528 22 6.81568 22 12C22 12.1934 21.9945 12.3854 21.9837 12.5761M13.003 2.04968C16.1885 6.45031 15.4214 12.4953 21.9837 12.5761M21.9837 12.5761C21.7251 17.1287 18.4211 20.8664 14.0769 21.784M14.0769 21.784C13.4069 21.9256 12.7121 22 12 22C6.47715 22 2 17.5228 2 12C2 11.2652 2.07925 10.5489 2.22967 9.85922M14.0769 21.784C14.0562 12.8104 6.63912 14.4561 2.22967 9.85922" stroke="#26272B" stroke-width="1.5" stroke-linecap="round" stroke-linejoin="round"/>
</svg>
