<svg width="24" height="24" viewBox="0 0 24 24" fill="none" xmlns="http://www.w3.org/2000/svg">
<g clip-path="url(#clip0_18003_4200)">
<path d="M8.4162 15.5872C8.88678 15.1166 13.0124 13.8194 15.4873 13.4659M8.4162 15.5872C8.88678 15.1166 10.184 10.991 10.5375 8.51611M8.4162 15.5872L7.35479 16.6471M14.4355 2.49658L21.5065 9.56765M11.607 5.32501L18.6781 12.3961M21.683 4.79443L13.9049 12.5726M19.2082 2.31956L11.43 10.0977M20.4368 11.3446C17.8984 13.883 14.0994 14.1996 11.9515 12.0517C9.80363 9.90381 10.1202 6.10482 12.6586 3.56641C15.197 1.028 18.996 0.711417 21.1439 2.8593C23.2918 5.00718 22.9752 8.80617 20.4368 11.3446ZM6.04388 16.8269L5.5489 16.8976C5.12051 16.9588 4.72353 17.1573 4.41753 17.4633L1.70696 20.1738C1.31643 20.5644 1.31643 21.1975 1.70696 21.588L2.41406 22.2952C2.80459 22.6857 3.43775 22.6857 3.82828 22.2952L6.53885 19.5846C6.84485 19.2786 7.04334 18.8816 7.10454 18.4532L7.17525 17.9582C7.26953 17.2983 6.70384 16.7326 6.04388 16.8269Z" stroke="#26272B" stroke-width="1.5" stroke-linecap="round" stroke-linejoin="round"/>
</g>
<defs>
<clipPath id="clip0_18003_4200">
<rect width="24" height="24" fill="white"/>
</clipPath>
</defs>
</svg>
