<svg width="24" height="24" viewBox="0 0 24 24" fill="none" xmlns="http://www.w3.org/2000/svg">
<path d="M3.40218 10.3012L14.8337 16.9012M17.9997 13.6176C15.5247 17.9044 10.8891 19.0386 7.20629 16.9123C3.52344 14.786 2.18789 10.2044 4.66289 5.91756C7.13789 1.63074 11.7734 0.496565 15.4563 2.62285C19.1391 4.74914 20.4747 9.33074 17.9997 13.6176ZM6.29128 16.2971L8.08468 17.3507L5.88523 22.5004L3.02734 20.8504L6.29128 16.2971ZM20.9997 20.0004C20.9997 21.105 20.1043 22.0004 18.9997 22.0004C17.8951 22.0004 16.9997 21.105 16.9997 20.0004C16.9997 18.8958 17.8951 18.0004 18.9997 18.0004C20.1043 18.0004 20.9997 18.8958 20.9997 20.0004Z" stroke="#26272B" stroke-width="1.5" stroke-linejoin="round"/>
</svg>
