<svg width="24" height="24" viewBox="0 0 24 24" fill="none" xmlns="http://www.w3.org/2000/svg">
<path d="M11.7488 2.00309C11.9128 2.6414 12 3.31052 12 4C12 8.41828 8.41828 12 4 12C3.31052 12 2.6414 11.9128 2.00309 11.7488M11.7488 2.00309C11.8323 2.00104 11.916 2 12 2C17.5228 2 22 6.47715 22 12C22 17.5228 17.5228 22 12 22C6.47715 22 2 17.5228 2 12C2 11.916 2.00104 11.8323 2.00309 11.7488M11.7488 2.00309C6.42551 2.13436 2.13436 6.42551 2.00309 11.7488M22 12.252C21.3608 12.0875 20.6906 12 20 12C15.5817 12 12 15.5817 12 20C12 20.6906 12.0875 21.3608 12.252 22" stroke="#26272B" stroke-width="1.5" stroke-linecap="round" stroke-linejoin="round"/>
</svg>
