<svg width="24" height="24" viewBox="0 0 24 24" fill="none" xmlns="http://www.w3.org/2000/svg">
<g clip-path="url(#clip0_18003_4185)">
<path d="M11.9999 12.0001C13.8006 12.0001 15.4902 12.4761 16.9496 13.309M11.9999 12.0001C11.0996 13.5595 9.84274 14.7847 8.39173 15.6322M11.9999 12.0001C11.0996 10.4407 10.667 8.73964 10.6587 7.0593M16.9496 13.309C16.7626 13.7113 16.5562 14.1088 16.3301 14.5004C16.1041 14.8918 15.8631 15.2692 15.6083 15.6322C13.5652 18.5433 10.6324 20.5321 7.39873 21.4408M16.9496 13.309C18.6583 14.2843 20.0516 15.7489 20.9386 17.512M8.39173 15.6322C8.13687 15.2691 7.89585 14.8916 7.66982 14.5001C5.63194 10.9704 5.19167 6.95676 6.12464 3.29642M8.39173 15.6322C6.69264 16.6246 4.72738 17.099 2.75678 16.9855M10.6587 7.0593C10.6498 5.28492 11.114 3.53368 11.9999 1.99688C12.0961 1.83008 12.1972 1.6658 12.3032 1.50429M10.6587 7.0593C11.1005 7.02014 11.5479 7.00015 12 7.00015C16.0754 7.00015 19.7711 8.6254 22.4745 11.2631M6.12464 3.29642C3.33427 5.18376 1.5 8.37767 1.5 12C1.5 13.8043 1.9551 15.5023 2.75678 16.9855M6.12464 3.29642C7.80137 2.16232 9.82334 1.5 12 1.5C12.1014 1.5 12.2025 1.50144 12.3032 1.50429M12.3032 1.50429C17.7159 1.65779 22.1033 5.90761 22.4745 11.2631M22.4745 11.2631C22.4914 11.5066 22.5 11.7523 22.5 12C22.5 14.0216 21.9287 15.9099 20.9386 17.512M20.9386 17.512C19.0888 20.5054 15.7773 22.5 12 22.5C10.3496 22.5 8.78818 22.1192 7.39873 21.4408M7.39873 21.4408C5.42504 20.477 3.79838 18.9126 2.75678 16.9855" stroke="#26272B" stroke-width="1.5" stroke-linecap="round"/>
</g>
<defs>
<clipPath id="clip0_18003_4185">
<rect width="24" height="24" fill="white"/>
</clipPath>
</defs>
</svg>
